# xmcd
#
# Track frame offsets:
#   150
#   13804
#   27961
#   44014
#   55072
#   71458
#   85858
#   98691
#   115186
#   129788
#   147569
#   165394
#   180879
#   195695
#   207857
#   220024
#   234066
#   248403
#   262194
#   277342
#   293564
#
# Disc length: 4176 seconds
#
# Revision: 0
# Processed by: cddbd v1.5.1PL0 Copyright (c) Steve Scherf et al.
# Submitted via: Media_Universe 3.0
#
DISCID=23104e15
DTITLE=Randy Travis - Greatest Hits
DYEAR=1900
DGENRE=Country
TTITLE0=Diggin Up Bones
TTITLE1=On The Other Hand
TTITLE2=Forever And Ever Amen
TTITLE3=Too Gone Too Long
TTITLE4=I Told You So
TTITLE5=I Wont Need You Anymore
TTITLE6=Honky Tonk Moon
TTITLE7=Deeper Than The Hotter
TTITLE8=Is It Still Over
TTITLE9=It's Just A Matter Of Time
TTITLE10=Hard Rock Bottom Of Your Heart
TTITLE11=He Walked On Water
TTITLE12=Heroes And Friends
TTITLE13=Better Class Of Loser
TTITLE14=I'm Gonna Have A Little Talk
TTITLE15=If I Didnt Have You
TTITLE16=Look Heart No Hands
TTITLE17=Whisper My Name
TTITLE18=Three Wooden Crosses
TTITLE19=Oh What A Time To Be Me
TTITLE20=Reasons I Cheat
EXTD=
EXTT0=
EXTT1=
EXTT2=
EXTT3=
EXTT4=
EXTT5=
EXTT6=
EXTT7=
EXTT8=
EXTT9=
EXTT10=
EXTT11=
EXTT12=
EXTT13=
EXTT14=
EXTT15=
EXTT16=
EXTT17=
EXTT18=
EXTT19=
EXTT20=
PLAYORDER=
